<mxfile host="app.diagrams.net" modified="2023-05-16T14:10:22.614Z" agent="Mozilla/5.0 (Windows NT 10.0; Win64; x64) AppleWebKit/537.36 (KHTML, like Gecko) Chrome/113.0.0.0 Safari/537.36" etag="0b_ojUqgPNZNU8MV4HEt" version="21.3.2" type="device">
  <diagram name="Page-1" id="tdHfhGkceOlnEOxhdrvR">
    <mxGraphModel dx="860" dy="366" grid="1" gridSize="10" guides="1" tooltips="1" connect="1" arrows="1" fold="1" page="1" pageScale="1" pageWidth="827" pageHeight="1169" math="0" shadow="0">
      <root>
        <mxCell id="0" />
        <mxCell id="1" parent="0" />
        <mxCell id="18uUIX6qp5ZnSjJOQlHz-3" style="edgeStyle=orthogonalEdgeStyle;rounded=0;orthogonalLoop=1;jettySize=auto;html=1;exitX=0.5;exitY=1;exitDx=0;exitDy=0;entryX=0.5;entryY=0;entryDx=0;entryDy=0;" edge="1" parent="1" source="n_QromgMuCSa9XtbqKkX-1" target="n_QromgMuCSa9XtbqKkX-2">
          <mxGeometry relative="1" as="geometry" />
        </mxCell>
        <mxCell id="n_QromgMuCSa9XtbqKkX-1" value="&lt;font style=&quot;font-size: 14px;&quot;&gt;&lt;b&gt;EEG Recording&lt;/b&gt;&lt;/font&gt;" style="rounded=0;whiteSpace=wrap;html=1;" parent="1" vertex="1">
          <mxGeometry x="60" y="60" width="120" height="40" as="geometry" />
        </mxCell>
        <mxCell id="18uUIX6qp5ZnSjJOQlHz-4" style="edgeStyle=orthogonalEdgeStyle;rounded=0;orthogonalLoop=1;jettySize=auto;html=1;exitX=0.5;exitY=1;exitDx=0;exitDy=0;entryX=0.5;entryY=0;entryDx=0;entryDy=0;" edge="1" parent="1" source="n_QromgMuCSa9XtbqKkX-2" target="n_QromgMuCSa9XtbqKkX-3">
          <mxGeometry relative="1" as="geometry" />
        </mxCell>
        <mxCell id="n_QromgMuCSa9XtbqKkX-2" value="&lt;b&gt;Filtering&lt;/b&gt;&lt;font style=&quot;font-size: 6px;&quot;&gt;&lt;br&gt;&lt;/font&gt;&lt;font style=&quot;font-size: 11px;&quot;&gt;Notch 50 Hz, 1 - 40 Hz&lt;/font&gt;" style="rounded=1;whiteSpace=wrap;html=1;" parent="1" vertex="1">
          <mxGeometry x="50" y="130" width="140" height="40" as="geometry" />
        </mxCell>
        <mxCell id="18uUIX6qp5ZnSjJOQlHz-6" style="edgeStyle=orthogonalEdgeStyle;rounded=0;orthogonalLoop=1;jettySize=auto;html=1;exitX=0.5;exitY=1;exitDx=0;exitDy=0;entryX=0.5;entryY=0;entryDx=0;entryDy=0;" edge="1" parent="1" source="n_QromgMuCSa9XtbqKkX-3" target="n_QromgMuCSa9XtbqKkX-4">
          <mxGeometry relative="1" as="geometry" />
        </mxCell>
        <mxCell id="n_QromgMuCSa9XtbqKkX-3" value="&lt;b&gt;Interpolation&lt;/b&gt;&lt;font style=&quot;font-size: 6px;&quot;&gt;&lt;br&gt;&lt;/font&gt;&lt;font style=&quot;font-size: 11px;&quot;&gt;Topographic Spline&lt;/font&gt;" style="rounded=1;whiteSpace=wrap;html=1;" parent="1" vertex="1">
          <mxGeometry x="50" y="190" width="140" height="40" as="geometry" />
        </mxCell>
        <mxCell id="18uUIX6qp5ZnSjJOQlHz-7" style="edgeStyle=orthogonalEdgeStyle;rounded=0;orthogonalLoop=1;jettySize=auto;html=1;exitX=0.5;exitY=1;exitDx=0;exitDy=0;entryX=0.5;entryY=0;entryDx=0;entryDy=0;" edge="1" parent="1" source="n_QromgMuCSa9XtbqKkX-4" target="n_QromgMuCSa9XtbqKkX-5">
          <mxGeometry relative="1" as="geometry" />
        </mxCell>
        <mxCell id="n_QromgMuCSa9XtbqKkX-4" value="&lt;b&gt;ICA&lt;/b&gt;&lt;font style=&quot;font-size: 6px;&quot;&gt;&lt;br&gt;&lt;/font&gt;&lt;font style=&quot;font-size: 11px;&quot;&gt;Manual Selection&lt;/font&gt;" style="rounded=1;whiteSpace=wrap;html=1;" parent="1" vertex="1">
          <mxGeometry x="50" y="250" width="140" height="40" as="geometry" />
        </mxCell>
        <mxCell id="18uUIX6qp5ZnSjJOQlHz-8" style="edgeStyle=orthogonalEdgeStyle;rounded=0;orthogonalLoop=1;jettySize=auto;html=1;exitX=0.5;exitY=1;exitDx=0;exitDy=0;entryX=0.5;entryY=0;entryDx=0;entryDy=0;" edge="1" parent="1" source="n_QromgMuCSa9XtbqKkX-5" target="n_QromgMuCSa9XtbqKkX-6">
          <mxGeometry relative="1" as="geometry" />
        </mxCell>
        <mxCell id="n_QromgMuCSa9XtbqKkX-5" value="&lt;b&gt;Artifact detection&lt;/b&gt;&lt;font style=&quot;font-size: 6px;&quot;&gt;&lt;br&gt;&lt;/font&gt;&lt;font style=&quot;font-size: 11px;&quot;&gt;gradient, max-min, low act.&lt;/font&gt;" style="rounded=1;whiteSpace=wrap;html=1;" parent="1" vertex="1">
          <mxGeometry x="50" y="310" width="140" height="40" as="geometry" />
        </mxCell>
        <mxCell id="18uUIX6qp5ZnSjJOQlHz-9" style="edgeStyle=orthogonalEdgeStyle;rounded=0;orthogonalLoop=1;jettySize=auto;html=1;exitX=0.5;exitY=1;exitDx=0;exitDy=0;entryX=0.5;entryY=0;entryDx=0;entryDy=0;" edge="1" parent="1" source="n_QromgMuCSa9XtbqKkX-6" target="n_QromgMuCSa9XtbqKkX-7">
          <mxGeometry relative="1" as="geometry" />
        </mxCell>
        <mxCell id="n_QromgMuCSa9XtbqKkX-6" value="&lt;b&gt;Epoching&lt;/b&gt;&lt;font style=&quot;font-size: 6px;&quot;&gt;&lt;br&gt;&lt;/font&gt;&lt;font style=&quot;font-size: 11px;&quot;&gt;3 seconds&lt;/font&gt;" style="rounded=1;whiteSpace=wrap;html=1;" parent="1" vertex="1">
          <mxGeometry x="50" y="370" width="140" height="40" as="geometry" />
        </mxCell>
        <mxCell id="18uUIX6qp5ZnSjJOQlHz-10" style="edgeStyle=orthogonalEdgeStyle;rounded=0;orthogonalLoop=1;jettySize=auto;html=1;exitX=0.5;exitY=1;exitDx=0;exitDy=0;entryX=0.5;entryY=0;entryDx=0;entryDy=0;" edge="1" parent="1" source="n_QromgMuCSa9XtbqKkX-7" target="n_QromgMuCSa9XtbqKkX-8">
          <mxGeometry relative="1" as="geometry" />
        </mxCell>
        <mxCell id="n_QromgMuCSa9XtbqKkX-7" value="&lt;b&gt;Remove epochs&lt;/b&gt;&lt;font style=&quot;font-size: 6px;&quot;&gt;&lt;br&gt;&lt;/font&gt;&lt;font style=&quot;font-size: 11px;&quot;&gt;Based on artifact detection&lt;/font&gt;" style="rounded=1;whiteSpace=wrap;html=1;" parent="1" vertex="1">
          <mxGeometry x="50" y="430" width="140" height="40" as="geometry" />
        </mxCell>
        <mxCell id="18uUIX6qp5ZnSjJOQlHz-12" style="edgeStyle=orthogonalEdgeStyle;rounded=0;orthogonalLoop=1;jettySize=auto;html=1;exitX=0.5;exitY=1;exitDx=0;exitDy=0;entryX=0.5;entryY=0;entryDx=0;entryDy=0;" edge="1" parent="1" source="n_QromgMuCSa9XtbqKkX-8">
          <mxGeometry relative="1" as="geometry">
            <mxPoint x="120" y="550" as="targetPoint" />
          </mxGeometry>
        </mxCell>
        <mxCell id="n_QromgMuCSa9XtbqKkX-8" value="&lt;b&gt;Rereferencing&lt;/b&gt;&lt;font style=&quot;font-size: 6px;&quot;&gt;&lt;br&gt;&lt;/font&gt;&lt;font style=&quot;font-size: 11px;&quot;&gt;Average Reference&lt;/font&gt;" style="rounded=1;whiteSpace=wrap;html=1;" parent="1" vertex="1">
          <mxGeometry x="50" y="490" width="140" height="40" as="geometry" />
        </mxCell>
        <mxCell id="18uUIX6qp5ZnSjJOQlHz-13" value="&lt;font style=&quot;font-size: 14px;&quot;&gt;&lt;b&gt;Preprocessed EEG&lt;/b&gt;&lt;/font&gt;" style="rounded=0;whiteSpace=wrap;html=1;" vertex="1" parent="1">
          <mxGeometry x="50" y="550" width="140" height="40" as="geometry" />
        </mxCell>
      </root>
    </mxGraphModel>
  </diagram>
</mxfile>
